<svg width="138" height="114" viewBox="0 0 138 114" fill="none" xmlns="http://www.w3.org/2000/svg">
<rect y="38.25" width="137.812" height="48.375" rx="14.0625" fill="white"/>
<circle cx="68.9062" cy="56.5312" r="56.5312" fill="white"/>
<circle cx="68.9062" cy="56.5312" r="53.1562" fill="#633423"/>
<circle cx="68.9062" cy="56.5312" r="53.1562" fill="url(#paint0_linear_20622_87)" fill-opacity="0.8"/>
<circle cx="68.9062" cy="56.5312" r="49.7812" fill="#75C1D9"/>
<circle cx="68.9062" cy="56.5312" r="49.7812" fill="url(#paint1_radial_20622_87)"/>
<circle cx="68.9062" cy="56.5312" r="49.2188" stroke="url(#paint2_linear_20622_87)" stroke-opacity="0.8" stroke-width="1.125"/>
<g filter="url(#filter0_d_20622_87)">
<rect width="32.4805" height="51.5564" rx="5.625" transform="matrix(-0.915831 0.401564 0.401564 0.915831 63.8916 16.8615)" fill="#EAB486"/>
<rect x="-0.289275" y="0.741035" width="31.3555" height="50.4314" rx="5.0625" transform="matrix(-0.915831 0.401564 0.401564 0.915831 63.0398 17.04)" stroke="#633423" stroke-width="1.125"/>
</g>
<g filter="url(#filter1_d_20622_87)">
<rect x="52.3125" y="12.9375" width="32.625" height="51.75" rx="5.625" fill="#FFD0A7"/>
<rect x="52.875" y="13.5" width="31.5" height="50.625" rx="5.0625" stroke="#633423" stroke-width="1.125"/>
</g>
<g filter="url(#filter2_d_20622_87)">
<rect x="73.1909" y="16.8615" width="32.4805" height="51.5564" rx="5.625" transform="rotate(23.676 73.1909 16.8615)" fill="#FFE4C5"/>
<rect x="73.4802" y="17.6025" width="31.3555" height="50.4314" rx="5.0625" transform="rotate(23.676 73.4802 17.6025)" stroke="#633423" stroke-width="1.125"/>
</g>
<rect x="5.0625" y="43.3125" width="127.688" height="38.25" rx="9.5625" fill="#FFD0A7" stroke="#56291A" stroke-width="3.375"/>
<path d="M32.3033 55.4785H35.9685C35.9685 57.0715 35.8065 58.5835 35.4825 60.0145C35.172 61.4455 34.7873 62.6132 34.3283 63.5177C33.8828 64.4222 33.4305 65.212 32.9715 65.887C32.5125 66.5485 32.121 67.021 31.797 67.3045L31.3313 67.75H26.7345L25.2158 62.8292C25.0268 63.4637 24.7298 64.1927 24.3248 65.0162C23.9333 65.8262 23.5823 66.481 23.2718 66.9805L22.806 67.75H18.4118L14.625 55.4785H21.0443L22.1985 63.457C22.401 63.2545 22.6508 62.89 22.9478 62.3635C23.2583 61.8235 23.5148 61.2767 23.7173 60.7232C23.9333 60.1562 24.129 59.407 24.3045 58.4755C24.4935 57.5305 24.5948 56.5315 24.6083 55.4785H28.962L30.1163 63.457C31.0613 62.269 31.716 60.6085 32.0805 58.4755C32.229 57.5305 32.3033 56.5315 32.3033 55.4785ZM38.5399 66.7577C37.5679 65.9477 37.0819 64.6652 37.0819 62.9102C37.0819 61.1552 37.5679 59.8795 38.5399 59.083C39.5254 58.273 40.8349 57.868 42.4684 57.868C44.1019 57.868 45.4047 58.273 46.3767 59.083C47.3622 59.8795 47.8549 61.1552 47.8549 62.9102C47.8549 64.6652 47.3622 65.9477 46.3767 66.7577C45.4047 67.5542 44.1019 67.9525 42.4684 67.9525C40.8349 67.9525 39.5254 67.5542 38.5399 66.7577ZM41.6179 60.622C41.4559 61.081 41.3749 61.8437 41.3749 62.9102C41.3749 63.9767 41.4559 64.7462 41.6179 65.2188C41.7799 65.6777 42.0634 65.9072 42.4684 65.9072C42.8734 65.9072 43.1569 65.6777 43.3189 65.2188C43.4809 64.7462 43.5619 63.9767 43.5619 62.9102C43.5619 61.8437 43.4809 61.081 43.3189 60.622C43.1569 60.1495 42.8734 59.9132 42.4684 59.9132C42.0634 59.9132 41.7799 60.1495 41.6179 60.622ZM53.4648 59.4677C54.1803 58.4012 55.0646 57.868 56.1176 57.868C56.6171 57.868 57.0761 57.9895 57.4946 58.2325L57.0086 61.5535C56.4686 61.1755 55.8611 60.9865 55.1861 60.9865C54.5381 60.9865 54.0993 61.2565 53.8698 61.7965C53.7348 62.134 53.6471 62.458 53.6066 62.7685L53.2218 67.75H49.5768L48.9693 58.1515H52.9586L53.4648 59.4677ZM58.0043 62.728C58.0043 61.7965 58.1325 60.9932 58.389 60.3182C58.659 59.6432 59.01 59.137 59.442 58.7995C60.2385 58.1785 61.1228 57.868 62.0948 57.868C62.5808 57.868 63.0263 57.9692 63.4313 58.1717C63.8498 58.3607 64.14 58.5565 64.302 58.759L64.545 59.0425L64.383 54.6077H69L68.4533 67.75H65.4158L65.0715 66.4337C64.2615 67.4327 63.2625 67.9323 62.0745 67.9323C60.9 67.9458 59.928 67.507 59.1585 66.616C58.389 65.725 58.0043 64.429 58.0043 62.728ZM63.3908 60.5815C62.5943 60.5815 62.196 61.3915 62.196 63.0115C62.196 63.3085 62.2163 63.592 62.2568 63.862C62.2973 64.132 62.4188 64.4155 62.6213 64.7125C62.8238 65.0095 63.1208 65.158 63.5123 65.158C63.9038 65.158 64.2008 64.942 64.4033 64.51C64.6193 64.0645 64.7273 63.565 64.7273 63.0115C64.7273 61.3915 64.2818 60.5815 63.3908 60.5815ZM78.6928 60.6422C79.1383 60.9122 79.5096 61.297 79.8066 61.7965C80.1171 62.296 80.2723 62.9642 80.2723 63.8012C80.2723 64.6247 80.0091 65.374 79.4826 66.049C78.5106 67.318 77.0323 67.9525 75.0478 67.9525C74.1838 67.9525 73.3266 67.831 72.4761 67.588C71.6391 67.3315 71.0181 67.075 70.6131 66.8185L70.0056 66.454L70.8763 64.7125C71.8483 65.185 72.7258 65.4212 73.5088 65.4212C74.2918 65.4212 74.6833 65.1715 74.6833 64.672C74.6833 64.3885 74.5281 64.1252 74.2176 63.8822C73.9206 63.6257 73.5493 63.3827 73.1038 63.1532C72.6718 62.9237 72.2331 62.6605 71.7876 62.3635C71.3556 62.053 70.9843 61.6277 70.6738 61.0877C70.3768 60.5342 70.2283 59.893 70.2283 59.164C70.2283 57.868 70.7211 56.8825 71.7066 56.2075C72.7056 55.5325 73.9071 55.195 75.3111 55.195C76.1481 55.195 76.9311 55.2962 77.6601 55.4987C78.4026 55.7012 78.9291 55.9037 79.2396 56.1062L79.7256 56.41L78.9358 58.1312C78.2473 57.8342 77.5521 57.6857 76.8501 57.6857C76.1616 57.6857 75.8173 57.949 75.8173 58.4755C75.8173 58.759 75.9658 59.0155 76.2628 59.245C76.5733 59.4745 76.9446 59.6972 77.3766 59.9132C77.8221 60.1157 78.2608 60.3587 78.6928 60.6422ZM86.7474 64.1455C86.7339 64.9285 87.0107 65.32 87.5777 65.32C87.7397 65.32 87.9354 65.2457 88.1649 65.0972L88.5902 67.0615C88.5092 67.129 88.3944 67.2167 88.2459 67.3247C88.1109 67.4192 87.8072 67.5475 87.3347 67.7095C86.8757 67.8715 86.3964 67.9525 85.8969 67.9525C84.9789 67.9525 84.2297 67.642 83.6492 67.021C83.0687 66.3865 82.7582 65.5832 82.7177 64.6112L82.5354 60.784H80.9762L81.2192 58.1515H82.4342L82.3532 56.167L87.1524 55.195L87.0107 58.1515H88.1852L88.4282 60.784H86.8892L86.7474 64.1455ZM93.2682 67.9525C92.2287 67.9525 91.3715 67.6488 90.6965 67.0412C90.035 66.4337 89.7042 65.5765 89.7042 64.4695C89.7042 63.349 90.0822 62.539 90.8382 62.0395C91.5942 61.5265 92.5055 61.27 93.572 61.27C94.6385 61.27 95.5632 61.4387 96.3462 61.7762C96.1707 60.6557 95.462 60.0955 94.22 60.0955C93.653 60.0955 92.951 60.2102 92.114 60.4397L91.6077 58.6172C92.8227 58.1177 94.058 57.868 95.3135 57.868C98.9315 57.868 100.74 59.407 100.74 62.485C100.74 63.538 100.619 64.996 100.376 66.859L100.275 67.75H96.9335L96.812 66.6362C95.894 67.5137 94.7127 67.9525 93.2682 67.9525ZM95.0907 65.4415C95.6982 65.4415 96.218 65.2727 96.65 64.9352L96.5285 63.5987C96.191 63.3692 95.813 63.2545 95.3945 63.2545C94.9895 63.2545 94.652 63.3557 94.382 63.5582C94.1255 63.7607 93.9972 64.0105 93.9972 64.3075C93.9972 64.6045 94.0985 64.8677 94.301 65.0972C94.5035 65.3267 94.7667 65.4415 95.0907 65.4415ZM111.242 66.3325C110.23 67.4125 108.873 67.9525 107.172 67.9525C105.485 67.9525 104.175 67.5002 103.244 66.5957C102.312 65.6777 101.846 64.3885 101.846 62.728C101.846 61.0675 102.346 59.8457 103.345 59.0627C104.344 58.2662 105.593 57.868 107.091 57.868C107.726 57.868 108.333 57.9287 108.914 58.0502C109.508 58.1717 109.94 58.3 110.21 58.435L110.615 58.6172L110.169 60.703C109.616 60.541 109.042 60.46 108.448 60.46C107.867 60.46 107.334 60.649 106.848 61.027C106.376 61.3915 106.139 61.9585 106.139 62.728C106.139 64.456 106.808 65.32 108.144 65.32C108.495 65.32 108.833 65.2795 109.157 65.1985C109.481 65.104 109.717 65.0095 109.865 64.915L110.088 64.7935L111.242 66.3325ZM119.672 67.75C118.065 66.1975 116.931 65.0972 116.27 64.4492L116.128 67.75H112.402L111.855 54.6077H116.675L116.432 60.8447L118.477 58.1515H122.567L119.712 62.161L122.972 67.75H119.672Z" fill="#633423"/>
<defs>
<filter id="filter0_d_20622_87" x="30.3037" y="15.2704" width="58.1323" height="67.9421" filterUnits="userSpaceOnUse" color-interpolation-filters="sRGB">
<feFlood flood-opacity="0" result="BackgroundImageFix"/>
<feColorMatrix in="SourceAlpha" type="matrix" values="0 0 0 0 0 0 0 0 0 0 0 0 0 0 0 0 0 0 127 0" result="hardAlpha"/>
<feOffset dy="2.25"/>
<feGaussianBlur stdDeviation="2.8125"/>
<feComposite in2="hardAlpha" operator="out"/>
<feColorMatrix type="matrix" values="0 0 0 0 0.352931 0 0 0 0 0.357158 0 0 0 0 0.362121 0 0 0 1 0"/>
<feBlend mode="normal" in2="BackgroundImageFix" result="effect1_dropShadow_20622_87"/>
<feBlend mode="normal" in="SourceGraphic" in2="effect1_dropShadow_20622_87" result="shape"/>
</filter>
<filter id="filter1_d_20622_87" x="46.6875" y="9.5625" width="43.875" height="63" filterUnits="userSpaceOnUse" color-interpolation-filters="sRGB">
<feFlood flood-opacity="0" result="BackgroundImageFix"/>
<feColorMatrix in="SourceAlpha" type="matrix" values="0 0 0 0 0 0 0 0 0 0 0 0 0 0 0 0 0 0 127 0" result="hardAlpha"/>
<feOffset dy="2.25"/>
<feGaussianBlur stdDeviation="2.8125"/>
<feComposite in2="hardAlpha" operator="out"/>
<feColorMatrix type="matrix" values="0 0 0 0 0.352931 0 0 0 0 0.357158 0 0 0 0 0.362121 0 0 0 1 0"/>
<feBlend mode="normal" in2="BackgroundImageFix" result="effect1_dropShadow_20622_87"/>
<feBlend mode="normal" in="SourceGraphic" in2="effect1_dropShadow_20622_87" result="shape"/>
</filter>
<filter id="filter2_d_20622_87" x="48.6465" y="15.2704" width="58.1323" height="67.9421" filterUnits="userSpaceOnUse" color-interpolation-filters="sRGB">
<feFlood flood-opacity="0" result="BackgroundImageFix"/>
<feColorMatrix in="SourceAlpha" type="matrix" values="0 0 0 0 0 0 0 0 0 0 0 0 0 0 0 0 0 0 127 0" result="hardAlpha"/>
<feOffset dy="2.25"/>
<feGaussianBlur stdDeviation="2.8125"/>
<feComposite in2="hardAlpha" operator="out"/>
<feColorMatrix type="matrix" values="0 0 0 0 0.352931 0 0 0 0 0.357158 0 0 0 0 0.362121 0 0 0 1 0"/>
<feBlend mode="normal" in2="BackgroundImageFix" result="effect1_dropShadow_20622_87"/>
<feBlend mode="normal" in="SourceGraphic" in2="effect1_dropShadow_20622_87" result="shape"/>
</filter>
<linearGradient id="paint0_linear_20622_87" x1="68.9062" y1="3.375" x2="68.9062" y2="109.688" gradientUnits="userSpaceOnUse">
<stop stop-color="#844E3B" stop-opacity="0.08"/>
<stop offset="1" stop-color="#3F180B"/>
</linearGradient>
<radialGradient id="paint1_radial_20622_87" cx="0" cy="0" r="1" gradientUnits="userSpaceOnUse" gradientTransform="translate(68.9062 56.5313) rotate(90) scale(49.7813)">
<stop offset="0.879545" stop-color="#35A6D4" stop-opacity="0.22"/>
<stop offset="1" stop-color="#32536B"/>
</radialGradient>
<linearGradient id="paint2_linear_20622_87" x1="68.9062" y1="6.75" x2="68.9062" y2="106.312" gradientUnits="userSpaceOnUse">
<stop stop-color="#633423"/>
<stop offset="1" stop-color="#512517"/>
</linearGradient>
</defs>
</svg>
